# xmcd
#
# Track frame offsets:
#	150
#	15984
#	30407
#	44033
#	57087
#	69792
#	81010
#	94410
#	107033
#	121158
#	132709
#	146446
#	157552
#	169191
#	180928
#	196646
#
# Disc length: 2830 seconds
# Revision: 0
# Processed by: cddbd v1.5.2PL0 Copyright (c) Steve Scherf et al.
# Submitted via: dBpowerAMP V12.0
#
DISCID=c00b0c10
DTITLE=Glen Campbell - Greatest Hits
DYEAR=2009
DGENRE=Country
TTITLE0=Rhinestone Cowboy (2008 Remix)
TTITLE1=Wichita Lineman (2008 Remix)
TTITLE2=Southern Nights (2009 Remix)
TTITLE3=By The Time I Get To Phoenix (2008 Remix)
TTITLE4=Galveston (2008 Remix)
TTITLE5=Try A Little Kindness (2009 Remix)
TTITLE6=Gentle On My Mind (2008 Remix)
TTITLE7=I Wanna Live (2009 Remix)
TTITLE8=Country Boy (You Got Your Feet In L.A.) (2009 Remix)
TTITLE9=True Grit (2009 Remix)
TTITLE10=Honey, Come Back (2009 Remix)
TTITLE11=It's Only Make Believe (2009 Remix)
TTITLE12=Dreams Of The Everyday Housewife (2009 Remix)
TTITLE13=Hey Little One (2009 Remix)
TTITLE14=Times Like These
TTITLE15=These Days
EXTD=
EXTT0=
EXTT1=
EXTT2=
EXTT3=
EXTT4=
EXTT5=
EXTT6=
EXTT7=
EXTT8=
EXTT9=
EXTT10=
EXTT11=
EXTT12=
EXTT13=
EXTT14=
EXTT15=
PLAYORDER=
